<mxfile host="app.diagrams.net" modified="2023-08-08T15:37:55.526Z" agent="Mozilla/5.0 (Windows NT 10.0; Win64; x64) AppleWebKit/537.36 (KHTML, like Gecko) Chrome/115.0.0.0 Safari/537.36" etag="7-dY3WqATMcu-1ElGDR4" version="21.6.6" type="device">
  <diagram id="C5RBs43oDa-KdzZeNtuy" name="Page-1">
    <mxGraphModel dx="2550" dy="1971" grid="1" gridSize="10" guides="1" tooltips="1" connect="1" arrows="1" fold="1" page="1" pageScale="1" pageWidth="827" pageHeight="1169" math="0" shadow="0">
      <root>
        <mxCell id="WIyWlLk6GJQsqaUBKTNV-0" />
        <mxCell id="WIyWlLk6GJQsqaUBKTNV-1" parent="WIyWlLk6GJQsqaUBKTNV-0" />
        <mxCell id="Y9Wlk4-9S2Ip-LXWGr2o-37" value="" style="rounded=0;whiteSpace=wrap;html=1;fillColor=#FF66B3;strokeColor=#FF66B3;" vertex="1" parent="WIyWlLk6GJQsqaUBKTNV-1">
          <mxGeometry x="-50" y="-710" width="1700" height="520" as="geometry" />
        </mxCell>
        <mxCell id="Y9Wlk4-9S2Ip-LXWGr2o-25" style="rounded=0;orthogonalLoop=1;jettySize=auto;html=1;exitX=0.5;exitY=1;exitDx=0;exitDy=0;entryX=0.5;entryY=0;entryDx=0;entryDy=0;" edge="1" parent="WIyWlLk6GJQsqaUBKTNV-1" source="Y9Wlk4-9S2Ip-LXWGr2o-23" target="Y9Wlk4-9S2Ip-LXWGr2o-26">
          <mxGeometry relative="1" as="geometry">
            <mxPoint x="1565" y="60" as="targetPoint" />
          </mxGeometry>
        </mxCell>
        <mxCell id="Y9Wlk4-9S2Ip-LXWGr2o-52" style="rounded=0;orthogonalLoop=1;jettySize=auto;html=1;exitX=0.5;exitY=1;exitDx=0;exitDy=0;entryX=0.5;entryY=0;entryDx=0;entryDy=0;" edge="1" parent="WIyWlLk6GJQsqaUBKTNV-1" source="Y9Wlk4-9S2Ip-LXWGr2o-23" target="Y9Wlk4-9S2Ip-LXWGr2o-51">
          <mxGeometry relative="1" as="geometry" />
        </mxCell>
        <mxCell id="Y9Wlk4-9S2Ip-LXWGr2o-72" style="rounded=0;orthogonalLoop=1;jettySize=auto;html=1;exitX=0.5;exitY=1;exitDx=0;exitDy=0;entryX=0.5;entryY=0;entryDx=0;entryDy=0;" edge="1" parent="WIyWlLk6GJQsqaUBKTNV-1" source="Y9Wlk4-9S2Ip-LXWGr2o-23" target="Y9Wlk4-9S2Ip-LXWGr2o-63">
          <mxGeometry relative="1" as="geometry" />
        </mxCell>
        <mxCell id="Y9Wlk4-9S2Ip-LXWGr2o-74" style="rounded=0;orthogonalLoop=1;jettySize=auto;html=1;exitX=0.5;exitY=1;exitDx=0;exitDy=0;entryX=0.5;entryY=0;entryDx=0;entryDy=0;" edge="1" parent="WIyWlLk6GJQsqaUBKTNV-1" source="Y9Wlk4-9S2Ip-LXWGr2o-23" target="Y9Wlk4-9S2Ip-LXWGr2o-73">
          <mxGeometry relative="1" as="geometry" />
        </mxCell>
        <mxCell id="Y9Wlk4-9S2Ip-LXWGr2o-83" style="rounded=0;orthogonalLoop=1;jettySize=auto;html=1;exitX=0.5;exitY=1;exitDx=0;exitDy=0;entryX=0.5;entryY=0;entryDx=0;entryDy=0;" edge="1" parent="WIyWlLk6GJQsqaUBKTNV-1" source="Y9Wlk4-9S2Ip-LXWGr2o-23" target="Y9Wlk4-9S2Ip-LXWGr2o-82">
          <mxGeometry relative="1" as="geometry" />
        </mxCell>
        <mxCell id="Y9Wlk4-9S2Ip-LXWGr2o-23" value="&lt;font style=&quot;font-size: 24px;&quot;&gt;Trialathon Shop&lt;/font&gt;" style="ellipse;whiteSpace=wrap;html=1;" vertex="1" parent="WIyWlLk6GJQsqaUBKTNV-1">
          <mxGeometry x="1590" y="-130" width="290" height="130" as="geometry" />
        </mxCell>
        <mxCell id="Y9Wlk4-9S2Ip-LXWGr2o-48" style="edgeStyle=orthogonalEdgeStyle;rounded=0;orthogonalLoop=1;jettySize=auto;html=1;exitX=0.5;exitY=1;exitDx=0;exitDy=0;entryX=0.5;entryY=0;entryDx=0;entryDy=0;" edge="1" parent="WIyWlLk6GJQsqaUBKTNV-1" source="Y9Wlk4-9S2Ip-LXWGr2o-26" target="Y9Wlk4-9S2Ip-LXWGr2o-45">
          <mxGeometry relative="1" as="geometry" />
        </mxCell>
        <mxCell id="Y9Wlk4-9S2Ip-LXWGr2o-26" value="Product" style="rounded=0;whiteSpace=wrap;html=1;fillColor=#FFFF00;" vertex="1" parent="WIyWlLk6GJQsqaUBKTNV-1">
          <mxGeometry x="950" y="70" width="120" height="60" as="geometry" />
        </mxCell>
        <mxCell id="Y9Wlk4-9S2Ip-LXWGr2o-42" value="" style="group" vertex="1" connectable="0" parent="WIyWlLk6GJQsqaUBKTNV-1">
          <mxGeometry x="40" y="-470" width="1574" height="400" as="geometry" />
        </mxCell>
        <mxCell id="Y9Wlk4-9S2Ip-LXWGr2o-40" value="" style="group" vertex="1" connectable="0" parent="Y9Wlk4-9S2Ip-LXWGr2o-42">
          <mxGeometry width="1574" height="400" as="geometry" />
        </mxCell>
        <mxCell id="Y9Wlk4-9S2Ip-LXWGr2o-28" value="" style="group" vertex="1" connectable="0" parent="Y9Wlk4-9S2Ip-LXWGr2o-40">
          <mxGeometry x="974" width="600" height="180" as="geometry" />
        </mxCell>
        <mxCell id="Y9Wlk4-9S2Ip-LXWGr2o-14" value="Health Care" style="rounded=0;whiteSpace=wrap;html=1;" vertex="1" parent="Y9Wlk4-9S2Ip-LXWGr2o-28">
          <mxGeometry x="240" width="120" height="60" as="geometry" />
        </mxCell>
        <mxCell id="Y9Wlk4-9S2Ip-LXWGr2o-15" value="Nutrition and hydration products" style="rounded=0;whiteSpace=wrap;html=1;" vertex="1" parent="Y9Wlk4-9S2Ip-LXWGr2o-28">
          <mxGeometry y="120" width="120" height="60" as="geometry" />
        </mxCell>
        <mxCell id="Y9Wlk4-9S2Ip-LXWGr2o-18" style="rounded=0;orthogonalLoop=1;jettySize=auto;html=1;exitX=0.5;exitY=1;exitDx=0;exitDy=0;entryX=0.5;entryY=0;entryDx=0;entryDy=0;" edge="1" parent="Y9Wlk4-9S2Ip-LXWGr2o-28" source="Y9Wlk4-9S2Ip-LXWGr2o-14" target="Y9Wlk4-9S2Ip-LXWGr2o-15">
          <mxGeometry relative="1" as="geometry" />
        </mxCell>
        <mxCell id="Y9Wlk4-9S2Ip-LXWGr2o-16" value="Recovery and care products" style="rounded=0;whiteSpace=wrap;html=1;" vertex="1" parent="Y9Wlk4-9S2Ip-LXWGr2o-28">
          <mxGeometry x="240" y="120" width="120" height="60" as="geometry" />
        </mxCell>
        <mxCell id="Y9Wlk4-9S2Ip-LXWGr2o-21" style="edgeStyle=orthogonalEdgeStyle;rounded=0;orthogonalLoop=1;jettySize=auto;html=1;exitX=0.5;exitY=1;exitDx=0;exitDy=0;entryX=0.5;entryY=0;entryDx=0;entryDy=0;" edge="1" parent="Y9Wlk4-9S2Ip-LXWGr2o-28" source="Y9Wlk4-9S2Ip-LXWGr2o-14" target="Y9Wlk4-9S2Ip-LXWGr2o-16">
          <mxGeometry relative="1" as="geometry" />
        </mxCell>
        <mxCell id="Y9Wlk4-9S2Ip-LXWGr2o-17" value="Books and&amp;nbsp;online training course" style="rounded=0;whiteSpace=wrap;html=1;" vertex="1" parent="Y9Wlk4-9S2Ip-LXWGr2o-28">
          <mxGeometry x="480" y="120" width="120" height="60" as="geometry" />
        </mxCell>
        <mxCell id="Y9Wlk4-9S2Ip-LXWGr2o-22" style="rounded=0;orthogonalLoop=1;jettySize=auto;html=1;exitX=0.5;exitY=1;exitDx=0;exitDy=0;entryX=0.5;entryY=0;entryDx=0;entryDy=0;" edge="1" parent="Y9Wlk4-9S2Ip-LXWGr2o-28" source="Y9Wlk4-9S2Ip-LXWGr2o-14" target="Y9Wlk4-9S2Ip-LXWGr2o-17">
          <mxGeometry relative="1" as="geometry" />
        </mxCell>
        <mxCell id="Y9Wlk4-9S2Ip-LXWGr2o-29" value="" style="group" vertex="1" connectable="0" parent="Y9Wlk4-9S2Ip-LXWGr2o-40">
          <mxGeometry width="880" height="180" as="geometry" />
        </mxCell>
        <mxCell id="Y9Wlk4-9S2Ip-LXWGr2o-1" value="Gear&amp;amp;Equipment" style="rounded=0;whiteSpace=wrap;html=1;" vertex="1" parent="Y9Wlk4-9S2Ip-LXWGr2o-29">
          <mxGeometry x="360" width="120" height="60" as="geometry" />
        </mxCell>
        <mxCell id="Y9Wlk4-9S2Ip-LXWGr2o-3" value="Racing suits and undergarments" style="rounded=0;whiteSpace=wrap;html=1;" vertex="1" parent="Y9Wlk4-9S2Ip-LXWGr2o-29">
          <mxGeometry y="120" width="120" height="60" as="geometry" />
        </mxCell>
        <mxCell id="Y9Wlk4-9S2Ip-LXWGr2o-4" style="rounded=0;orthogonalLoop=1;jettySize=auto;html=1;exitX=0.5;exitY=1;exitDx=0;exitDy=0;entryX=0.5;entryY=0;entryDx=0;entryDy=0;" edge="1" parent="Y9Wlk4-9S2Ip-LXWGr2o-29" source="Y9Wlk4-9S2Ip-LXWGr2o-1" target="Y9Wlk4-9S2Ip-LXWGr2o-3">
          <mxGeometry relative="1" as="geometry" />
        </mxCell>
        <mxCell id="Y9Wlk4-9S2Ip-LXWGr2o-5" value="Swimming equipment" style="rounded=0;whiteSpace=wrap;html=1;" vertex="1" parent="Y9Wlk4-9S2Ip-LXWGr2o-29">
          <mxGeometry x="190" y="120" width="120" height="60" as="geometry" />
        </mxCell>
        <mxCell id="Y9Wlk4-9S2Ip-LXWGr2o-6" style="rounded=0;orthogonalLoop=1;jettySize=auto;html=1;exitX=0.5;exitY=1;exitDx=0;exitDy=0;entryX=0.5;entryY=0;entryDx=0;entryDy=0;" edge="1" parent="Y9Wlk4-9S2Ip-LXWGr2o-29" source="Y9Wlk4-9S2Ip-LXWGr2o-1" target="Y9Wlk4-9S2Ip-LXWGr2o-5">
          <mxGeometry relative="1" as="geometry" />
        </mxCell>
        <mxCell id="Y9Wlk4-9S2Ip-LXWGr2o-7" value="Cycling gear" style="rounded=0;whiteSpace=wrap;html=1;" vertex="1" parent="Y9Wlk4-9S2Ip-LXWGr2o-29">
          <mxGeometry x="360" y="120" width="120" height="60" as="geometry" />
        </mxCell>
        <mxCell id="Y9Wlk4-9S2Ip-LXWGr2o-8" style="edgeStyle=orthogonalEdgeStyle;rounded=0;orthogonalLoop=1;jettySize=auto;html=1;exitX=0.5;exitY=1;exitDx=0;exitDy=0;entryX=0.5;entryY=0;entryDx=0;entryDy=0;" edge="1" parent="Y9Wlk4-9S2Ip-LXWGr2o-29" source="Y9Wlk4-9S2Ip-LXWGr2o-1" target="Y9Wlk4-9S2Ip-LXWGr2o-7">
          <mxGeometry relative="1" as="geometry" />
        </mxCell>
        <mxCell id="Y9Wlk4-9S2Ip-LXWGr2o-9" value="Running gear" style="rounded=0;whiteSpace=wrap;html=1;" vertex="1" parent="Y9Wlk4-9S2Ip-LXWGr2o-29">
          <mxGeometry x="560" y="120" width="120" height="60" as="geometry" />
        </mxCell>
        <mxCell id="Y9Wlk4-9S2Ip-LXWGr2o-10" style="rounded=0;orthogonalLoop=1;jettySize=auto;html=1;exitX=0.5;exitY=1;exitDx=0;exitDy=0;entryX=0.5;entryY=0;entryDx=0;entryDy=0;" edge="1" parent="Y9Wlk4-9S2Ip-LXWGr2o-29" source="Y9Wlk4-9S2Ip-LXWGr2o-1" target="Y9Wlk4-9S2Ip-LXWGr2o-9">
          <mxGeometry relative="1" as="geometry" />
        </mxCell>
        <mxCell id="Y9Wlk4-9S2Ip-LXWGr2o-12" value="Multi-sport devices" style="rounded=0;whiteSpace=wrap;html=1;" vertex="1" parent="Y9Wlk4-9S2Ip-LXWGr2o-29">
          <mxGeometry x="760" y="120" width="120" height="60" as="geometry" />
        </mxCell>
        <mxCell id="Y9Wlk4-9S2Ip-LXWGr2o-13" style="rounded=0;orthogonalLoop=1;jettySize=auto;html=1;exitX=0.5;exitY=1;exitDx=0;exitDy=0;entryX=0.5;entryY=0;entryDx=0;entryDy=0;" edge="1" parent="Y9Wlk4-9S2Ip-LXWGr2o-29" source="Y9Wlk4-9S2Ip-LXWGr2o-1" target="Y9Wlk4-9S2Ip-LXWGr2o-12">
          <mxGeometry relative="1" as="geometry" />
        </mxCell>
        <mxCell id="Y9Wlk4-9S2Ip-LXWGr2o-49" style="edgeStyle=orthogonalEdgeStyle;rounded=0;orthogonalLoop=1;jettySize=auto;html=1;exitX=0.5;exitY=1;exitDx=0;exitDy=0;entryX=0.5;entryY=0;entryDx=0;entryDy=0;" edge="1" parent="WIyWlLk6GJQsqaUBKTNV-1" source="Y9Wlk4-9S2Ip-LXWGr2o-45" target="Y9Wlk4-9S2Ip-LXWGr2o-46">
          <mxGeometry relative="1" as="geometry" />
        </mxCell>
        <mxCell id="Y9Wlk4-9S2Ip-LXWGr2o-45" value="Show Product" style="rounded=0;whiteSpace=wrap;html=1;fillColor=#FFFF00;" vertex="1" parent="WIyWlLk6GJQsqaUBKTNV-1">
          <mxGeometry x="950" y="180" width="120" height="60" as="geometry" />
        </mxCell>
        <mxCell id="Y9Wlk4-9S2Ip-LXWGr2o-50" style="edgeStyle=orthogonalEdgeStyle;rounded=0;orthogonalLoop=1;jettySize=auto;html=1;exitX=0.5;exitY=1;exitDx=0;exitDy=0;entryX=0.5;entryY=0;entryDx=0;entryDy=0;" edge="1" parent="WIyWlLk6GJQsqaUBKTNV-1" source="Y9Wlk4-9S2Ip-LXWGr2o-46" target="Y9Wlk4-9S2Ip-LXWGr2o-47">
          <mxGeometry relative="1" as="geometry" />
        </mxCell>
        <mxCell id="Y9Wlk4-9S2Ip-LXWGr2o-46" value="Add to cart" style="rounded=0;whiteSpace=wrap;html=1;fillColor=#FFFF00;" vertex="1" parent="WIyWlLk6GJQsqaUBKTNV-1">
          <mxGeometry x="950" y="290" width="120" height="60" as="geometry" />
        </mxCell>
        <mxCell id="Y9Wlk4-9S2Ip-LXWGr2o-47" value="Comparison" style="rounded=0;whiteSpace=wrap;html=1;fillColor=#FFFF00;" vertex="1" parent="WIyWlLk6GJQsqaUBKTNV-1">
          <mxGeometry x="950" y="400" width="120" height="60" as="geometry" />
        </mxCell>
        <mxCell id="Y9Wlk4-9S2Ip-LXWGr2o-54" style="edgeStyle=orthogonalEdgeStyle;rounded=0;orthogonalLoop=1;jettySize=auto;html=1;exitX=0.5;exitY=1;exitDx=0;exitDy=0;" edge="1" parent="WIyWlLk6GJQsqaUBKTNV-1" source="Y9Wlk4-9S2Ip-LXWGr2o-51" target="Y9Wlk4-9S2Ip-LXWGr2o-53">
          <mxGeometry relative="1" as="geometry" />
        </mxCell>
        <mxCell id="Y9Wlk4-9S2Ip-LXWGr2o-51" value="Cart" style="rounded=0;whiteSpace=wrap;html=1;fillColor=#FF8000;" vertex="1" parent="WIyWlLk6GJQsqaUBKTNV-1">
          <mxGeometry x="1220" y="70" width="120" height="60" as="geometry" />
        </mxCell>
        <mxCell id="Y9Wlk4-9S2Ip-LXWGr2o-59" style="edgeStyle=orthogonalEdgeStyle;rounded=0;orthogonalLoop=1;jettySize=auto;html=1;exitX=0;exitY=0.5;exitDx=0;exitDy=0;entryX=0.5;entryY=0;entryDx=0;entryDy=0;" edge="1" parent="WIyWlLk6GJQsqaUBKTNV-1" source="Y9Wlk4-9S2Ip-LXWGr2o-53" target="Y9Wlk4-9S2Ip-LXWGr2o-55">
          <mxGeometry relative="1" as="geometry" />
        </mxCell>
        <mxCell id="Y9Wlk4-9S2Ip-LXWGr2o-60" style="edgeStyle=orthogonalEdgeStyle;rounded=0;orthogonalLoop=1;jettySize=auto;html=1;exitX=1;exitY=0.5;exitDx=0;exitDy=0;entryX=0.5;entryY=0;entryDx=0;entryDy=0;" edge="1" parent="WIyWlLk6GJQsqaUBKTNV-1" source="Y9Wlk4-9S2Ip-LXWGr2o-53" target="Y9Wlk4-9S2Ip-LXWGr2o-56">
          <mxGeometry relative="1" as="geometry" />
        </mxCell>
        <mxCell id="Y9Wlk4-9S2Ip-LXWGr2o-53" value="View cart product" style="rounded=0;whiteSpace=wrap;html=1;fillColor=#FF8000;" vertex="1" parent="WIyWlLk6GJQsqaUBKTNV-1">
          <mxGeometry x="1220" y="180" width="120" height="60" as="geometry" />
        </mxCell>
        <mxCell id="Y9Wlk4-9S2Ip-LXWGr2o-62" style="edgeStyle=orthogonalEdgeStyle;rounded=0;orthogonalLoop=1;jettySize=auto;html=1;exitX=0.5;exitY=1;exitDx=0;exitDy=0;entryX=0.5;entryY=0;entryDx=0;entryDy=0;" edge="1" parent="WIyWlLk6GJQsqaUBKTNV-1" source="Y9Wlk4-9S2Ip-LXWGr2o-55" target="Y9Wlk4-9S2Ip-LXWGr2o-61">
          <mxGeometry relative="1" as="geometry" />
        </mxCell>
        <mxCell id="Y9Wlk4-9S2Ip-LXWGr2o-55" value="Total bill" style="rounded=0;whiteSpace=wrap;html=1;fillColor=#FF8000;" vertex="1" parent="WIyWlLk6GJQsqaUBKTNV-1">
          <mxGeometry x="1100" y="290" width="120" height="60" as="geometry" />
        </mxCell>
        <mxCell id="Y9Wlk4-9S2Ip-LXWGr2o-56" value="Edit Order" style="rounded=0;whiteSpace=wrap;html=1;fillColor=#FF8000;" vertex="1" parent="WIyWlLk6GJQsqaUBKTNV-1">
          <mxGeometry x="1340" y="290" width="120" height="60" as="geometry" />
        </mxCell>
        <mxCell id="Y9Wlk4-9S2Ip-LXWGr2o-61" value="Checkout" style="rounded=0;whiteSpace=wrap;html=1;fillColor=#FF8000;" vertex="1" parent="WIyWlLk6GJQsqaUBKTNV-1">
          <mxGeometry x="1100" y="400" width="120" height="60" as="geometry" />
        </mxCell>
        <mxCell id="Y9Wlk4-9S2Ip-LXWGr2o-66" style="edgeStyle=orthogonalEdgeStyle;rounded=0;orthogonalLoop=1;jettySize=auto;html=1;exitX=0;exitY=0.5;exitDx=0;exitDy=0;" edge="1" parent="WIyWlLk6GJQsqaUBKTNV-1" source="Y9Wlk4-9S2Ip-LXWGr2o-63" target="Y9Wlk4-9S2Ip-LXWGr2o-64">
          <mxGeometry relative="1" as="geometry" />
        </mxCell>
        <mxCell id="Y9Wlk4-9S2Ip-LXWGr2o-67" style="edgeStyle=orthogonalEdgeStyle;rounded=0;orthogonalLoop=1;jettySize=auto;html=1;exitX=1;exitY=0.5;exitDx=0;exitDy=0;entryX=0.5;entryY=0;entryDx=0;entryDy=0;" edge="1" parent="WIyWlLk6GJQsqaUBKTNV-1" source="Y9Wlk4-9S2Ip-LXWGr2o-63" target="Y9Wlk4-9S2Ip-LXWGr2o-65">
          <mxGeometry relative="1" as="geometry" />
        </mxCell>
        <mxCell id="Y9Wlk4-9S2Ip-LXWGr2o-63" value="Account" style="rounded=0;whiteSpace=wrap;html=1;fillColor=#FF3333;" vertex="1" parent="WIyWlLk6GJQsqaUBKTNV-1">
          <mxGeometry x="1600" y="80" width="120" height="60" as="geometry" />
        </mxCell>
        <mxCell id="Y9Wlk4-9S2Ip-LXWGr2o-69" style="edgeStyle=orthogonalEdgeStyle;rounded=0;orthogonalLoop=1;jettySize=auto;html=1;exitX=0.5;exitY=1;exitDx=0;exitDy=0;entryX=0.5;entryY=0;entryDx=0;entryDy=0;" edge="1" parent="WIyWlLk6GJQsqaUBKTNV-1" source="Y9Wlk4-9S2Ip-LXWGr2o-64" target="Y9Wlk4-9S2Ip-LXWGr2o-68">
          <mxGeometry relative="1" as="geometry" />
        </mxCell>
        <mxCell id="Y9Wlk4-9S2Ip-LXWGr2o-64" value="Profile" style="rounded=0;whiteSpace=wrap;html=1;fillColor=#FF3333;" vertex="1" parent="WIyWlLk6GJQsqaUBKTNV-1">
          <mxGeometry x="1480" y="180" width="120" height="60" as="geometry" />
        </mxCell>
        <mxCell id="Y9Wlk4-9S2Ip-LXWGr2o-71" style="edgeStyle=orthogonalEdgeStyle;rounded=0;orthogonalLoop=1;jettySize=auto;html=1;exitX=0.5;exitY=1;exitDx=0;exitDy=0;entryX=0.5;entryY=0;entryDx=0;entryDy=0;" edge="1" parent="WIyWlLk6GJQsqaUBKTNV-1" source="Y9Wlk4-9S2Ip-LXWGr2o-65" target="Y9Wlk4-9S2Ip-LXWGr2o-70">
          <mxGeometry relative="1" as="geometry" />
        </mxCell>
        <mxCell id="Y9Wlk4-9S2Ip-LXWGr2o-65" value="Sign In" style="rounded=0;whiteSpace=wrap;html=1;fillColor=#FF3333;" vertex="1" parent="WIyWlLk6GJQsqaUBKTNV-1">
          <mxGeometry x="1720" y="180" width="120" height="60" as="geometry" />
        </mxCell>
        <mxCell id="Y9Wlk4-9S2Ip-LXWGr2o-68" value="View &amp;amp; Edit Profile&amp;nbsp;" style="rounded=0;whiteSpace=wrap;html=1;fillColor=#FF3333;" vertex="1" parent="WIyWlLk6GJQsqaUBKTNV-1">
          <mxGeometry x="1480" y="290" width="120" height="60" as="geometry" />
        </mxCell>
        <mxCell id="Y9Wlk4-9S2Ip-LXWGr2o-70" value="Sign Up" style="rounded=0;whiteSpace=wrap;html=1;fillColor=#FF3333;" vertex="1" parent="WIyWlLk6GJQsqaUBKTNV-1">
          <mxGeometry x="1720" y="290" width="120" height="60" as="geometry" />
        </mxCell>
        <mxCell id="Y9Wlk4-9S2Ip-LXWGr2o-78" style="edgeStyle=orthogonalEdgeStyle;rounded=0;orthogonalLoop=1;jettySize=auto;html=1;exitX=0.5;exitY=1;exitDx=0;exitDy=0;entryX=0.5;entryY=0;entryDx=0;entryDy=0;" edge="1" parent="WIyWlLk6GJQsqaUBKTNV-1" source="Y9Wlk4-9S2Ip-LXWGr2o-73" target="Y9Wlk4-9S2Ip-LXWGr2o-75">
          <mxGeometry relative="1" as="geometry" />
        </mxCell>
        <mxCell id="Y9Wlk4-9S2Ip-LXWGr2o-73" value="About" style="rounded=0;whiteSpace=wrap;html=1;fillColor=#97D077;" vertex="1" parent="WIyWlLk6GJQsqaUBKTNV-1">
          <mxGeometry x="1960" y="80" width="120" height="60" as="geometry" />
        </mxCell>
        <mxCell id="Y9Wlk4-9S2Ip-LXWGr2o-79" style="edgeStyle=orthogonalEdgeStyle;rounded=0;orthogonalLoop=1;jettySize=auto;html=1;exitX=0.5;exitY=1;exitDx=0;exitDy=0;entryX=0.5;entryY=0;entryDx=0;entryDy=0;" edge="1" parent="WIyWlLk6GJQsqaUBKTNV-1" source="Y9Wlk4-9S2Ip-LXWGr2o-75" target="Y9Wlk4-9S2Ip-LXWGr2o-76">
          <mxGeometry relative="1" as="geometry" />
        </mxCell>
        <mxCell id="Y9Wlk4-9S2Ip-LXWGr2o-75" value="FAQ" style="rounded=0;whiteSpace=wrap;html=1;fillColor=#97D077;" vertex="1" parent="WIyWlLk6GJQsqaUBKTNV-1">
          <mxGeometry x="1960" y="180" width="120" height="60" as="geometry" />
        </mxCell>
        <mxCell id="Y9Wlk4-9S2Ip-LXWGr2o-80" style="edgeStyle=orthogonalEdgeStyle;rounded=0;orthogonalLoop=1;jettySize=auto;html=1;exitX=0.5;exitY=1;exitDx=0;exitDy=0;entryX=0.5;entryY=0;entryDx=0;entryDy=0;" edge="1" parent="WIyWlLk6GJQsqaUBKTNV-1" source="Y9Wlk4-9S2Ip-LXWGr2o-76" target="Y9Wlk4-9S2Ip-LXWGr2o-77">
          <mxGeometry relative="1" as="geometry" />
        </mxCell>
        <mxCell id="Y9Wlk4-9S2Ip-LXWGr2o-76" value="Contact" style="rounded=0;whiteSpace=wrap;html=1;fillColor=#97D077;" vertex="1" parent="WIyWlLk6GJQsqaUBKTNV-1">
          <mxGeometry x="1960" y="290" width="120" height="60" as="geometry" />
        </mxCell>
        <mxCell id="Y9Wlk4-9S2Ip-LXWGr2o-77" value="Social Link" style="rounded=0;whiteSpace=wrap;html=1;fillColor=#97D077;" vertex="1" parent="WIyWlLk6GJQsqaUBKTNV-1">
          <mxGeometry x="1960" y="400" width="120" height="60" as="geometry" />
        </mxCell>
        <mxCell id="Y9Wlk4-9S2Ip-LXWGr2o-85" style="edgeStyle=orthogonalEdgeStyle;rounded=0;orthogonalLoop=1;jettySize=auto;html=1;exitX=0.5;exitY=1;exitDx=0;exitDy=0;entryX=0.5;entryY=0;entryDx=0;entryDy=0;" edge="1" parent="WIyWlLk6GJQsqaUBKTNV-1" source="Y9Wlk4-9S2Ip-LXWGr2o-82" target="Y9Wlk4-9S2Ip-LXWGr2o-84">
          <mxGeometry relative="1" as="geometry" />
        </mxCell>
        <mxCell id="Y9Wlk4-9S2Ip-LXWGr2o-82" value="Blog" style="rounded=0;whiteSpace=wrap;html=1;fillColor=#3333FF;" vertex="1" parent="WIyWlLk6GJQsqaUBKTNV-1">
          <mxGeometry x="2260" y="80" width="120" height="60" as="geometry" />
        </mxCell>
        <mxCell id="Y9Wlk4-9S2Ip-LXWGr2o-84" value="Forums" style="rounded=0;whiteSpace=wrap;html=1;fillColor=#3333FF;" vertex="1" parent="WIyWlLk6GJQsqaUBKTNV-1">
          <mxGeometry x="2260" y="180" width="120" height="60" as="geometry" />
        </mxCell>
      </root>
    </mxGraphModel>
  </diagram>
</mxfile>
